<svg width="23" height="24" viewBox="0 0 23 24" fill="none" xmlns="http://www.w3.org/2000/svg">
<path d="M15.7165 8.19945C15.7165 8.09678 15.6762 7.99832 15.6043 7.92573C15.5324 7.85313 15.4349 7.81235 15.3332 7.81235H14.8477C14.7896 7.6308 14.717 7.45431 14.6306 7.28463L14.9744 6.9374C15.01 6.90147 15.0383 6.8588 15.0575 6.81184C15.0768 6.76488 15.0867 6.71455 15.0867 6.66371C15.0867 6.61288 15.0768 6.56254 15.0575 6.51558C15.0383 6.46862 15.01 6.42596 14.9744 6.39002L13.9887 5.39468C13.9532 5.35873 13.9109 5.33021 13.8644 5.31075C13.8179 5.29129 13.768 5.28128 13.7177 5.28128C13.6674 5.28128 13.6175 5.29129 13.571 5.31075C13.5245 5.33021 13.4823 5.35873 13.4467 5.39468L13.1028 5.74191C12.9348 5.65468 12.76 5.58136 12.5802 5.52265V5.03236C12.5802 4.9297 12.5399 4.83124 12.468 4.75864C12.3961 4.68605 12.2986 4.64526 12.1969 4.64526H10.8028C10.7012 4.64526 10.6037 4.68605 10.5318 4.75864C10.4599 4.83124 10.4195 4.9297 10.4195 5.03236V5.52266C10.2397 5.58133 10.0649 5.65466 9.89691 5.74191L9.55306 5.39469C9.51748 5.35873 9.47522 5.33021 9.42872 5.31075C9.38222 5.29129 9.33237 5.28128 9.28203 5.28128C9.23169 5.28128 9.18185 5.29129 9.13534 5.31075C9.08884 5.33021 9.04659 5.35873 9.011 5.39469L8.02534 6.39003C7.98973 6.42597 7.96149 6.46863 7.94222 6.5156C7.92295 6.56256 7.91303 6.61289 7.91303 6.66372C7.91303 6.71456 7.92295 6.76489 7.94222 6.81185C7.96149 6.85881 7.98973 6.90148 8.02534 6.93741L8.36919 7.28464C8.28281 7.45433 8.2102 7.63082 8.15206 7.81236H7.66654C7.56487 7.81236 7.46737 7.85315 7.39548 7.92574C7.32359 7.99833 7.2832 8.09679 7.2832 8.19946V9.60722C7.2832 9.70989 7.32359 9.80835 7.39548 9.88094C7.46737 9.95354 7.56487 9.99432 7.66654 9.99432H8.15207C8.21017 10.1759 8.28279 10.3524 8.36919 10.522L8.02534 10.8693C7.98974 10.9052 7.96149 10.9479 7.94222 10.9948C7.92295 11.0418 7.91304 11.0921 7.91304 11.143C7.91304 11.1938 7.92295 11.2441 7.94222 11.2911C7.96149 11.338 7.98974 11.3807 8.02534 11.4166L9.01101 12.412C9.0466 12.4479 9.08885 12.4764 9.13535 12.4959C9.18186 12.5154 9.2317 12.5254 9.28204 12.5254C9.33238 12.5254 9.38223 12.5154 9.42873 12.4959C9.47523 12.4764 9.51749 12.4479 9.55307 12.412L9.89692 12.0647C10.065 12.152 10.2397 12.2253 10.4195 12.284V12.7743C10.4195 12.877 10.4599 12.9754 10.5318 13.048C10.6037 13.1206 10.7012 13.1614 10.8028 13.1614H12.1969C12.2986 13.1614 12.3961 13.1206 12.468 13.048C12.5399 12.9754 12.5803 12.877 12.5803 12.7743V12.284C12.76 12.2253 12.9348 12.152 13.1029 12.0647L13.4467 12.412C13.4823 12.4479 13.5245 12.4764 13.571 12.4959C13.6175 12.5154 13.6674 12.5254 13.7177 12.5254C13.7681 12.5254 13.8179 12.5154 13.8644 12.4959C13.9109 12.4764 13.9532 12.4479 13.9888 12.412L14.9744 11.4166C15.01 11.3807 15.0383 11.338 15.0575 11.2911C15.0768 11.2441 15.0867 11.1938 15.0867 11.1429C15.0867 11.0921 15.0768 11.0418 15.0575 10.9948C15.0383 10.9478 15.01 10.9052 14.9744 10.8692L14.6306 10.522C14.7169 10.3523 14.7896 10.1758 14.8477 9.9943H15.3332C15.4349 9.9943 15.5324 9.95351 15.6043 9.88092C15.6762 9.80832 15.7165 9.70986 15.7165 9.6072V8.19945ZM14.9499 9.22011H14.8166C14.6607 9.2213 14.5091 9.27277 14.3842 9.36702C14.2592 9.46127 14.1674 9.59337 14.122 9.74406C14.0747 9.8941 14.0148 10.0398 13.9429 10.1795C13.8691 10.3186 13.8413 10.4778 13.8635 10.6339C13.8858 10.7901 13.957 10.9349 14.0666 11.0473L14.1613 11.1429L13.7177 11.5909L13.623 11.4953C13.5118 11.3845 13.3684 11.3126 13.2138 11.2901C13.0592 11.2676 12.9015 11.2957 12.7639 11.3703C12.6254 11.4429 12.4811 11.5034 12.3324 11.5512C12.1832 11.597 12.0524 11.6898 11.9591 11.816C11.8657 11.9421 11.8148 12.0951 11.8136 12.2526V12.3872H11.1862V12.2526C11.185 12.0951 11.134 11.9421 11.0407 11.816C10.9474 11.6898 10.8165 11.597 10.6673 11.5512C10.5187 11.5034 10.3745 11.4429 10.2361 11.3703C10.0984 11.2958 9.9407 11.2677 9.78609 11.2902C9.63147 11.3127 9.48803 11.3846 9.37675 11.4953L9.28204 11.5909L8.83844 11.1429L8.93315 11.0473C9.04278 10.935 9.11393 10.7901 9.13619 10.634C9.15845 10.4779 9.13066 10.3187 9.05687 10.1797C8.98503 10.0399 8.9251 9.89415 8.87775 9.74406C8.83237 9.59338 8.74051 9.46128 8.61556 9.36703C8.49061 9.27277 8.3391 9.2213 8.18314 9.22012H8.04987V8.58654H8.18314C8.3391 8.58536 8.4906 8.53389 8.61556 8.43964C8.74051 8.34538 8.83237 8.21328 8.87774 8.0626C8.92507 7.91256 8.98499 7.76687 9.05687 7.62712C9.13066 7.48808 9.15846 7.32885 9.1362 7.17271C9.11394 7.01658 9.04279 6.87173 8.93314 6.75937L8.83843 6.66373L9.28204 6.21577L9.37675 6.31141C9.48795 6.42218 9.63136 6.49408 9.78597 6.51656C9.94058 6.53904 10.0982 6.51093 10.2359 6.43634C10.3744 6.36379 10.5187 6.30328 10.6673 6.25546C10.8165 6.20964 10.9474 6.11688 11.0407 5.9907C11.134 5.86452 11.185 5.71153 11.1862 5.55404V5.41946H11.8136V5.55404C11.8148 5.71152 11.8657 5.86452 11.9591 5.99069C12.0524 6.11687 12.1832 6.20964 12.3324 6.25545C12.481 6.30325 12.6253 6.36376 12.7637 6.43634C12.9014 6.51089 13.059 6.53898 13.2137 6.5165C13.3683 6.49402 13.5117 6.42214 13.623 6.3114L13.7177 6.21576L14.1613 6.66372L14.0666 6.75936C13.957 6.87169 13.8858 7.01651 13.8636 7.17261C13.8413 7.32872 13.8691 7.48792 13.9429 7.62693C14.0147 7.76675 14.0746 7.9125 14.122 8.0626C14.1674 8.21328 14.2592 8.34538 14.3842 8.43963C14.5091 8.53388 14.6606 8.58536 14.8166 8.58654H14.9499V9.22011Z" fill="black"/>
<path d="M11.5002 6.58057C11.0453 6.58057 10.6006 6.71678 10.2224 6.97199C9.84415 7.2272 9.54936 7.58994 9.37527 8.01433C9.20119 8.43873 9.15564 8.90572 9.24439 9.35626C9.33314 9.8068 9.55219 10.2206 9.87385 10.5455C10.1955 10.8703 10.6053 11.0915 11.0515 11.1811C11.4976 11.2707 11.9601 11.2247 12.3804 11.0489C12.8006 10.8731 13.1599 10.5755 13.4126 10.1935C13.6653 9.81156 13.8002 9.36251 13.8002 8.90315C13.7995 8.28737 13.557 7.697 13.1258 7.26158C12.6946 6.82616 12.11 6.58124 11.5002 6.58057ZM11.5002 10.4515C11.1969 10.4515 10.9005 10.3607 10.6483 10.1906C10.3962 10.0204 10.1996 9.77862 10.0836 9.49569C9.96753 9.21276 9.93716 8.90143 9.99633 8.60107C10.0555 8.30071 10.2015 8.02482 10.416 7.80827C10.6304 7.59173 10.9036 7.44426 11.2011 7.38451C11.4985 7.32477 11.8068 7.35543 12.087 7.47262C12.3672 7.58982 12.6066 7.78828 12.7751 8.04291C12.9436 8.29754 13.0335 8.59691 13.0335 8.90315C13.0331 9.31366 12.8714 9.70723 12.5839 9.9975C12.2965 10.2878 11.9067 10.4511 11.5002 10.4515Z" fill="black"/>
<path d="M0.383317 23.9999H22.6167C22.6801 24 22.7426 23.9841 22.7984 23.9537C22.8543 23.9233 22.9018 23.8794 22.9367 23.8259C22.9716 23.7724 22.9929 23.711 22.9985 23.6472C23.0041 23.5834 22.994 23.5192 22.969 23.4603L20.669 18.041C20.6394 17.9713 20.5903 17.912 20.5277 17.8703C20.4651 17.8286 20.3917 17.8064 20.3167 17.8064H15.7167V18.5806H20.064L22.0353 23.2258H0.964682L2.93601 18.5806H7.28333V17.8064H2.68332C2.60831 17.8064 2.53494 17.8286 2.47231 17.8703C2.40969 17.912 2.36056 17.9713 2.33104 18.041L0.0310336 23.4603C0.00602713 23.5192 -0.0041168 23.5834 0.00151158 23.6472C0.00713997 23.711 0.0283646 23.7724 0.0632819 23.8259C0.0981992 23.8794 0.145717 23.9233 0.201574 23.9537C0.25743 23.9841 0.319878 24 0.383317 23.9999Z" fill="black"/>
<path d="M11.1168 14.3225H10.3501V16.6451H11.1168V14.3225Z" fill="black"/>
<path d="M11.1168 17.4194H10.3501V18.1936H11.1168V17.4194Z" fill="black"/>
<path d="M11.1168 18.9678H10.3501V20.9033H11.1168V18.9678Z" fill="black"/>
<path d="M12.65 14.3225H11.8833V17.0322H12.65V14.3225Z" fill="black"/>
<path d="M12.65 17.8064H11.8833V20.9032H12.65V17.8064Z" fill="black"/>
<path d="M14.1832 15.0967H13.4165V18.5806H14.1832V15.0967Z" fill="black"/>
<path d="M9.58356 19.3547H8.81689V20.1289H9.58356V19.3547Z" fill="black"/>
<path d="M9.58356 14.7097H8.81689V18.5807H9.58356V14.7097Z" fill="black"/>
<path d="M14.1832 19.3547H13.4165V20.1289H14.1832V19.3547Z" fill="black"/>
<path d="M17.6333 1.16138C17.5317 1.16138 17.4342 1.20216 17.3623 1.27476C17.2904 1.34735 17.25 1.44581 17.25 1.54847V3.87105C17.25 3.97372 17.2904 4.07218 17.3623 4.14477C17.4342 4.21737 17.5317 4.25815 17.6333 4.25815H18.7833V5.03234H18.0167C17.915 5.03234 17.8175 5.07313 17.7456 5.14572C17.6737 5.21832 17.6333 5.31678 17.6333 5.41944V7.35493C17.6333 7.45759 17.6737 7.55605 17.7456 7.62864C17.8175 7.70124 17.915 7.74202 18.0167 7.74202H19.9333C20.035 7.74202 20.1325 7.70124 20.2044 7.62864C20.2763 7.55605 20.3167 7.45759 20.3167 7.35493V6.58073H22.2333C22.335 6.58073 22.4325 6.53995 22.5044 6.46735C22.5763 6.39476 22.6167 6.2963 22.6167 6.19363V3.09686C22.6167 2.9942 22.5763 2.89574 22.5044 2.82314C22.4325 2.75055 22.335 2.70976 22.2333 2.70976H20.3167V1.54847C20.3167 1.44581 20.2763 1.34735 20.2044 1.27476C20.1325 1.20216 20.035 1.16138 19.9333 1.16138H17.6333ZM18.0167 3.48396V1.93557H19.55V2.70976H19.1667C19.065 2.70976 18.9675 2.75055 18.8956 2.82314C18.8237 2.89574 18.7833 2.9942 18.7833 3.09686V3.48396H18.0167ZM19.55 6.96783H18.4V5.80654H18.7833V6.19363C18.7833 6.2963 18.8237 6.39476 18.8956 6.46735C18.9675 6.53995 19.065 6.58073 19.1667 6.58073H19.55V6.96783ZM21.85 3.48396V5.80654H19.55V3.48396H21.85Z" fill="black"/>
<path d="M12.6501 3.09677C12.7518 3.09677 12.8493 3.05599 12.9212 2.9834C12.9931 2.9108 13.0335 2.81234 13.0335 2.70968V0.387097C13.0335 0.284432 12.9931 0.185973 12.9212 0.113378C12.8493 0.0407833 12.7518 0 12.6501 0H10.3501C10.2485 0 10.151 0.0407833 10.0791 0.113378C10.0072 0.185973 9.9668 0.284432 9.9668 0.387097V2.70968C9.9668 2.81234 10.0072 2.9108 10.0791 2.9834C10.151 3.05599 10.2485 3.09677 10.3501 3.09677H12.6501ZM10.7335 0.774194H12.2668V2.32258H10.7335V0.774194Z" fill="black"/>
<path d="M0.766635 11.613H3.06664C3.1683 11.613 3.26581 11.5722 3.3377 11.4996C3.40958 11.427 3.44997 11.3285 3.44997 11.2259V10.0646H5.36664C5.46831 10.0646 5.56581 10.0238 5.6377 9.95119C5.70959 9.8786 5.74998 9.78014 5.74998 9.67747V6.5807C5.74998 6.47804 5.70959 6.37958 5.6377 6.30698C5.56581 6.23439 5.46831 6.1936 5.36664 6.1936H2.29997C2.1983 6.1936 2.1008 6.23439 2.02891 6.30698C1.95702 6.37958 1.91664 6.47804 1.91664 6.5807V8.51618H0.766635C0.664968 8.51618 0.567466 8.55697 0.495577 8.62956C0.423688 8.70216 0.383301 8.80062 0.383301 8.90328V11.2259C0.383301 11.3285 0.423688 11.427 0.495577 11.4996C0.567466 11.5722 0.664968 11.613 0.766635 11.613ZM2.6833 6.9678H4.98331V9.29038H2.6833V6.9678ZM1.14997 9.29038H1.91664V9.67747C1.91664 9.78014 1.95702 9.8786 2.02891 9.95119C2.1008 10.0238 2.1983 10.0646 2.29997 10.0646H2.6833V10.8388H1.14997V9.29038Z" fill="black"/>
<path d="M3.06644 5.03219H4.98311C5.08478 5.03219 5.18228 4.9914 5.25417 4.91881C5.32606 4.84621 5.36644 4.74776 5.36644 4.64509V2.70961C5.36644 2.60694 5.32606 2.50848 5.25417 2.43589C5.18228 2.36329 5.08478 2.32251 4.98311 2.32251H3.06644C2.96477 2.32251 2.86727 2.36329 2.79538 2.43589C2.72349 2.50848 2.68311 2.60694 2.68311 2.70961V4.64509C2.68311 4.74776 2.72349 4.84621 2.79538 4.91881C2.86727 4.9914 2.96477 5.03219 3.06644 5.03219ZM3.44977 3.0967H4.59977V4.25799H3.44977V3.0967Z" fill="black"/>
<path d="M17.25 11.6128C17.1484 11.6128 17.0509 11.6536 16.979 11.7262C16.9071 11.7988 16.8667 11.8972 16.8667 11.9999V13.5483C16.8667 13.6509 16.9071 13.7494 16.979 13.822C17.0509 13.8946 17.1484 13.9354 17.25 13.9354H18.7834C18.885 13.9354 18.9825 13.8946 19.0544 13.822C19.1263 13.7494 19.1667 13.6509 19.1667 13.5483V11.9999C19.1667 11.8972 19.1263 11.7988 19.0544 11.7262C18.9825 11.6536 18.885 11.6128 18.7834 11.6128H17.25ZM18.4 13.1612H17.6334V12.387H18.4V13.1612Z" fill="black"/>
<path d="M3.71548 19.742H6.51655V18.9678H3.44988C3.37183 18.9678 3.29565 18.9918 3.23151 19.0367C3.16736 19.0816 3.1183 19.1452 3.09088 19.219L1.94087 22.3157C1.91914 22.3743 1.91179 22.4373 1.91944 22.4994C1.92709 22.5615 1.94952 22.6207 1.9848 22.6721C2.02009 22.7235 2.06718 22.7656 2.12205 22.7946C2.17692 22.8236 2.23794 22.8387 2.29987 22.8387H20.6999C20.7618 22.8387 20.8229 22.8236 20.8777 22.7946C20.9326 22.7656 20.9797 22.7235 21.015 22.6721C21.0503 22.6207 21.0727 22.5615 21.0803 22.4994C21.088 22.4373 21.0806 22.3743 21.0589 22.3157L19.9089 19.219C19.8815 19.1452 19.8324 19.0816 19.7683 19.0367C19.7041 18.9918 19.6279 18.9678 19.5499 18.9678H16.4832V19.742H19.2843L20.1468 22.0645H2.85298L3.71548 19.742Z" fill="black"/>
</svg>
