<svg width="27" height="24" viewBox="0 0 27 24" fill="none" xmlns="http://www.w3.org/2000/svg">
<path d="M23.9614 0H3.00988C2.21471 0 1.44839 0.312865 0.880569 0.880884C0.312753 1.4489 0 2.2155 0 3.01096V20.989C0 21.7845 0.312753 22.5511 0.880569 23.1191C1.44839 23.6871 2.21471 24 3.00988 24H23.9901C24.7853 24 25.5516 23.6871 26.1194 23.1191C26.6872 22.5511 27 21.7845 27 20.989V2.98227C27 2.18682 26.6872 1.42022 26.1194 0.852199C25.5228 0.311928 24.7566 0 23.9614 0ZM12.3502 1.87381C12.6341 1.87381 12.9468 1.98697 13.1453 2.21439C13.3439 2.41298 13.4858 2.69698 13.4858 3.00985C13.4858 3.29386 13.3727 3.60672 13.1453 3.8053C12.918 4.00388 12.6629 4.14589 12.3502 4.14589C12.0374 4.14589 11.7535 4.03273 11.555 3.8053C11.3565 3.57788 11.2145 3.32271 11.2145 3.00985C11.2145 2.72584 11.3277 2.41297 11.555 2.21439C11.7823 1.98807 12.0663 1.87381 12.3502 1.87381ZM7.86414 1.87381C8.14805 1.87381 8.4608 1.98697 8.65931 2.21439C8.85782 2.41298 8.99977 2.69698 8.99977 3.00985C8.99977 3.29386 8.88665 3.60672 8.65931 3.8053C8.4608 4.00389 8.17689 4.14589 7.86414 4.14589C7.58023 4.14589 7.26748 4.03273 7.06897 3.8053C6.87046 3.60672 6.72851 3.32271 6.72851 3.00985C6.72851 2.72584 6.84163 2.41297 7.06897 2.21439C7.29632 1.98807 7.58023 1.87381 7.86414 1.87381ZM3.37811 1.87381C3.66202 1.87381 3.97477 1.98697 4.17328 2.21439C4.37179 2.41298 4.51374 2.69698 4.51374 3.00985C4.51374 3.29386 4.40062 3.60672 4.17328 3.8053C3.97476 4.00389 3.69086 4.14589 3.37811 4.14589C3.06536 4.14589 2.78145 4.03273 2.58294 3.8053C2.38442 3.60672 2.24248 3.32271 2.24248 3.00985C2.24248 2.72584 2.3556 2.41297 2.58294 2.21439C2.78256 1.98807 3.06646 1.87381 3.37811 1.87381ZM25.4664 19.4824C25.4664 20.2779 25.1537 21.0445 24.5859 21.6125C24.0181 22.1805 23.2517 22.4934 22.4566 22.4934H4.48603C3.69086 22.4934 2.92454 22.1805 2.35672 21.6125C1.7889 21.0445 1.47615 20.2779 1.47615 19.4824V5.99195H25.4374L25.4664 19.4824ZM9.7385 19.4824C9.53999 19.4824 9.34148 19.397 9.19953 19.255L4.7135 14.7685C4.57155 14.6265 4.48615 14.4279 4.48615 14.2293C4.48615 14.0307 4.57155 13.8322 4.7135 13.6901L9.02862 9.37349C9.17057 9.23148 9.36908 9.14606 9.56759 9.14606C9.7661 9.14606 9.96461 9.23148 10.1066 9.37349C10.2485 9.51549 10.3339 9.71407 10.3339 9.91265C10.3339 10.1112 10.2485 10.3098 10.1066 10.4518L6.30276 14.2283L10.2775 18.2044C10.5048 18.4319 10.5614 18.7436 10.4483 19.0276C10.3063 19.2839 10.0501 19.4824 9.7385 19.4824ZM17.2331 19.4824C16.9204 19.4824 16.6653 19.3116 16.5522 19.0275C16.4391 18.7435 16.4956 18.4307 16.723 18.2044L20.6977 14.2282L16.8638 10.4231C16.7218 10.2811 16.6364 10.0825 16.6364 9.8839C16.6364 9.68532 16.7218 9.48674 16.8638 9.34474C17.0057 9.20273 17.2042 9.11731 17.4028 9.11731C17.6013 9.11731 17.7998 9.20273 17.9417 9.34474L22.2568 13.6614C22.3988 13.8034 22.4842 14.002 22.4842 14.2006C22.4842 14.3991 22.3988 14.5977 22.2568 14.7397L17.7731 19.256C17.6311 19.3981 17.4316 19.4824 17.2331 19.4824Z" fill="black"/>
</svg>
