<svg width="24" height="24" viewBox="0 0 24 24" fill="none" xmlns="http://www.w3.org/2000/svg">
<path d="M6.85693 18H23.9998V12.8572H6.85693V18ZM20.5712 15C20.5712 14.7631 20.7629 14.5715 20.9998 14.5715C21.2367 14.5715 21.4284 14.7631 21.4284 15V15.8572C21.4284 16.0941 21.2367 16.2857 20.9998 16.2857C20.7629 16.2857 20.5712 16.0941 20.5712 15.8572V15ZM18.8569 15C18.8569 14.7631 19.0486 14.5715 19.2855 14.5715C19.5224 14.5715 19.7141 14.7631 19.7141 15V15.8572C19.7141 16.0941 19.5224 16.2857 19.2855 16.2857C19.0486 16.2857 18.8569 16.0941 18.8569 15.8572V15ZM17.1426 15C17.1426 14.7631 17.3343 14.5715 17.5712 14.5715C17.8081 14.5715 17.9998 14.7631 17.9998 15V15.8572C17.9998 16.0941 17.8081 16.2857 17.5712 16.2857C17.3343 16.2857 17.1426 16.0941 17.1426 15.8572V15ZM15.4284 15C15.4284 14.7631 15.62 14.5715 15.8569 14.5715C16.0938 14.5715 16.2855 14.7631 16.2855 15V15.8572C16.2855 16.0941 16.0938 16.2857 15.8569 16.2857C15.62 16.2857 15.4284 16.0941 15.4284 15.8572V15Z" fill="black"/>
<path d="M6.85693 21.4286C6.85693 22.8466 8.01039 24 9.42836 24H21.4284C22.8463 24 23.9998 22.8466 23.9998 21.4286V18.8572H6.85693V21.4286ZM20.5712 21C20.5712 20.7631 20.7629 20.5715 20.9998 20.5715C21.2367 20.5715 21.4284 20.7631 21.4284 21V21.8572C21.4284 22.0941 21.2367 22.2857 20.9998 22.2857C20.7629 22.2857 20.5712 22.0941 20.5712 21.8572V21ZM18.8569 21C18.8569 20.7631 19.0486 20.5715 19.2855 20.5715C19.5224 20.5715 19.7141 20.7631 19.7141 21V21.8572C19.7141 22.0941 19.5224 22.2857 19.2855 22.2857C19.0486 22.2857 18.8569 22.0941 18.8569 21.8572V21ZM17.1426 21C17.1426 20.7631 17.3343 20.5715 17.5712 20.5715C17.8081 20.5715 17.9998 20.7631 17.9998 21V21.8572C17.9998 22.0941 17.8081 22.2857 17.5712 22.2857C17.3343 22.2857 17.1426 22.0941 17.1426 21.8572V21ZM15.4284 21C15.4284 20.7631 15.62 20.5715 15.8569 20.5715C16.0938 20.5715 16.2855 20.7631 16.2855 21V21.8572C16.2855 22.0941 16.0938 22.2857 15.8569 22.2857C15.62 22.2857 15.4284 22.0941 15.4284 21.8572V21Z" fill="black"/>
<path d="M13.7143 2.57143C13.7143 1.15346 12.5608 0 11.1429 0H2.57143C1.15346 0 0 1.15346 0 2.57143V5.14286H13.7143V2.57143ZM6 3.42857C5.52659 3.42857 5.14286 3.04478 5.14286 2.57143C5.14286 2.09802 5.52659 1.71429 6 1.71429C6.47341 1.71429 6.85714 2.09802 6.85714 2.57143C6.85714 3.04478 6.47341 3.42857 6 3.42857ZM8.57143 3.42857C8.09802 3.42857 7.71429 3.04478 7.71429 2.57143C7.71429 2.09802 8.09802 1.71429 8.57143 1.71429C9.04484 1.71429 9.42857 2.09802 9.42857 2.57143C9.42857 3.04478 9.04484 3.42857 8.57143 3.42857ZM11.1429 3.42857C10.6695 3.42857 10.2857 3.04478 10.2857 2.57143C10.2857 2.09802 10.6695 1.71429 11.1429 1.71429C11.6163 1.71429 12 2.09802 12 2.57143C12 3.04478 11.6163 3.42857 11.1429 3.42857Z" fill="black"/>
<path d="M13.7143 8.57143V6H0V8.57143C0 9.9894 1.15346 11.1429 2.57143 11.1429H11.1429C12.5608 11.1429 13.7143 9.9894 13.7143 8.57143ZM6 9.42857C5.52659 9.42857 5.14286 9.04478 5.14286 8.57143C5.14286 8.09802 5.52659 7.71429 6 7.71429C6.47341 7.71429 6.85714 8.09802 6.85714 8.57143C6.85714 9.04478 6.47341 9.42857 6 9.42857ZM8.57143 9.42857C8.09802 9.42857 7.71429 9.04478 7.71429 8.57143C7.71429 8.09802 8.09802 7.71429 8.57143 7.71429C9.04484 7.71429 9.42857 8.09802 9.42857 8.57143C9.42857 9.04478 9.04484 9.42857 8.57143 9.42857ZM10.2857 8.57143C10.2857 8.09802 10.6695 7.71429 11.1429 7.71429C11.6163 7.71429 12 8.09802 12 8.57143C12 9.04478 11.6163 9.42857 11.1429 9.42857C10.6695 9.42857 10.2857 9.04478 10.2857 8.57143Z" fill="black"/>
<path d="M14.5716 8.57146C14.5716 10.4624 13.034 12 11.1431 12H24.0002V6.85718H14.5716V8.57146ZM20.5716 9.00003C20.5716 8.76315 20.7633 8.57146 21.0002 8.57146C21.2371 8.57146 21.4288 8.76315 21.4288 9.00003V9.85718C21.4288 10.0941 21.2371 10.2857 21.0002 10.2857C20.7633 10.2857 20.5716 10.0941 20.5716 9.85718V9.00003ZM18.8574 9.00003C18.8574 8.76315 19.049 8.57146 19.2859 8.57146C19.5228 8.57146 19.7145 8.76315 19.7145 9.00003V9.85718C19.7145 10.0941 19.5228 10.2857 19.2859 10.2857C19.049 10.2857 18.8574 10.0941 18.8574 9.85718V9.00003ZM17.1431 9.00003C17.1431 8.76315 17.3348 8.57146 17.5716 8.57146C17.8085 8.57146 18.0002 8.76315 18.0002 9.00003V9.85718C18.0002 10.0941 17.8085 10.2857 17.5716 10.2857C17.3348 10.2857 17.1431 10.0941 17.1431 9.85718V9.00003ZM15.4288 9.00003C15.4288 8.76315 15.6205 8.57146 15.8574 8.57146C16.0942 8.57146 16.2859 8.76315 16.2859 9.00003V9.85718C16.2859 10.0941 16.0942 10.2857 15.8574 10.2857C15.6205 10.2857 15.4288 10.0941 15.4288 9.85718V9.00003Z" fill="black"/>
<path d="M21.4286 0.857178H14.0947C14.3899 1.36349 14.5715 1.94414 14.5715 2.57146V6.00003H24.0001V3.42861C24.0001 2.01064 22.8466 0.857178 21.4286 0.857178ZM16.2858 3.85718C16.2858 4.09406 16.0941 4.28575 15.8572 4.28575C15.6203 4.28575 15.4286 4.09406 15.4286 3.85718V3.00003C15.4286 2.76315 15.6203 2.57146 15.8572 2.57146C16.0941 2.57146 16.2858 2.76315 16.2858 3.00003V3.85718ZM18.0001 3.85718C18.0001 4.09406 17.8084 4.28575 17.5715 4.28575C17.3346 4.28575 17.1429 4.09406 17.1429 3.85718V3.00003C17.1429 2.76315 17.3346 2.57146 17.5715 2.57146C17.8084 2.57146 18.0001 2.76315 18.0001 3.00003V3.85718ZM19.7143 3.85718C19.7143 4.09406 19.5227 4.28575 19.2858 4.28575C19.0489 4.28575 18.8572 4.09406 18.8572 3.85718V3.00003C18.8572 2.76315 19.0489 2.57146 19.2858 2.57146C19.5227 2.57146 19.7143 2.76315 19.7143 3.00003V3.85718ZM21.4286 3.85718C21.4286 4.09406 21.2369 4.28575 21.0001 4.28575C20.7632 4.28575 20.5715 4.09406 20.5715 3.85718V3.00003C20.5715 2.76315 20.7632 2.57146 21.0001 2.57146C21.2369 2.57146 21.4286 2.76315 21.4286 3.00003V3.85718Z" fill="black"/>
</svg>
