<svg width="24" height="24" viewBox="0 0 24 24" fill="none" xmlns="http://www.w3.org/2000/svg">
<path d="M23.1429 19.5257V4.47429C23.6649 4.00286 24 3.32829 24 2.57143C24 1.15371 22.8463 0 21.4286 0C20.6717 0 19.9971 0.335143 19.5257 0.857143H4.47429C4.00286 0.335143 3.32829 0 2.57143 0C1.15371 0 0 1.15371 0 2.57143C0 3.32829 0.335143 4.00286 0.857143 4.47429V19.5257C0.335143 19.9971 0 20.6717 0 21.4286C0 22.8463 1.15371 24 2.57143 24C3.32829 24 4.00286 23.6649 4.47429 23.1429H19.5257C19.9963 23.6649 20.6717 24 21.4286 24C22.8463 24 24 22.8463 24 21.4286C24 20.6717 23.6649 19.9971 23.1429 19.5257ZM21.4286 1.71429C21.9017 1.71429 22.2857 2.09914 22.2857 2.57143C22.2857 3.04371 21.9017 3.42857 21.4286 3.42857C20.9554 3.42857 20.5714 3.04371 20.5714 2.57143C20.5714 2.09914 20.9554 1.71429 21.4286 1.71429ZM2.57143 1.71429C3.04457 1.71429 3.42857 2.09914 3.42857 2.57143C3.42857 3.04371 3.04457 3.42857 2.57143 3.42857C2.09829 3.42857 1.71429 3.04371 1.71429 2.57143C1.71429 2.09914 2.09829 1.71429 2.57143 1.71429ZM2.57143 22.2857C2.09829 22.2857 1.71429 21.9009 1.71429 21.4286C1.71429 20.9563 2.09829 20.5714 2.57143 20.5714C3.04457 20.5714 3.42857 20.9563 3.42857 21.4286C3.42857 21.9009 3.04457 22.2857 2.57143 22.2857ZM5.14286 21.4286C5.14286 20.0109 3.98914 18.8571 2.57143 18.8571V5.14286C3.98914 5.14286 5.14286 3.98914 5.14286 2.57143H18.8571C18.8571 3.98914 20.0109 5.14286 21.4286 5.14286V18.8571C20.0109 18.8571 18.8571 20.0109 18.8571 21.4286H5.14286ZM21.4286 22.2857C20.9554 22.2857 20.5714 21.9009 20.5714 21.4286C20.5714 20.9563 20.9554 20.5714 21.4286 20.5714C21.9017 20.5714 22.2857 20.9563 22.2857 21.4286C22.2857 21.9009 21.9017 22.2857 21.4286 22.2857Z" fill="black"/>
<path d="M12.0002 6.85718C11.5262 6.85718 11.1431 7.24118 11.1431 7.71432V9.42861C11.1431 9.90175 11.5262 10.2857 12.0002 10.2857C12.4742 10.2857 12.8574 9.90175 12.8574 9.42861V7.71432C12.8574 7.24118 12.4742 6.85718 12.0002 6.85718Z" fill="black"/>
<path d="M14.5715 6.85718C14.0975 6.85718 13.7144 7.24118 13.7144 7.71432V9.42861C13.7144 9.90175 14.0975 10.2857 14.5715 10.2857C15.0455 10.2857 15.4286 9.90175 15.4286 9.42861V7.71432C15.4286 7.24118 15.0455 6.85718 14.5715 6.85718Z" fill="black"/>
<path d="M17.1428 6.85718C16.6688 6.85718 16.2856 7.24118 16.2856 7.71432V9.42861C16.2856 9.90175 16.6688 10.2857 17.1428 10.2857C17.6168 10.2857 17.9999 9.90175 17.9999 9.42861V7.71432C17.9999 7.24118 17.6168 6.85718 17.1428 6.85718Z" fill="black"/>
<path d="M12.0002 17.1429C12.4742 17.1429 12.8574 16.7589 12.8574 16.2858V14.5715C12.8574 14.0984 12.4742 13.7144 12.0002 13.7144C11.5262 13.7144 11.1431 14.0984 11.1431 14.5715V16.2858C11.1431 16.7589 11.5262 17.1429 12.0002 17.1429Z" fill="black"/>
<path d="M14.5715 17.1429C15.0455 17.1429 15.4286 16.7589 15.4286 16.2858V14.5715C15.4286 14.0984 15.0455 13.7144 14.5715 13.7144C14.0975 13.7144 13.7144 14.0984 13.7144 14.5715V16.2858C13.7144 16.7589 14.0975 17.1429 14.5715 17.1429Z" fill="black"/>
<path d="M17.1428 17.1429C17.6168 17.1429 17.9999 16.7589 17.9999 16.2858V14.5715C17.9999 14.0984 17.6168 13.7144 17.1428 13.7144C16.6688 13.7144 16.2856 14.0984 16.2856 14.5715V16.2858C16.2856 16.7589 16.6688 17.1429 17.1428 17.1429Z" fill="black"/>
<path d="M20.5716 17.1428V6.85707C20.5716 5.43936 19.4179 4.28564 18.0001 4.28564H6.00014C4.58243 4.28564 3.42871 5.43936 3.42871 6.85707V17.1428C3.42871 18.5605 4.58243 19.7142 6.00014 19.7142H18.0001C19.4179 19.7142 20.5716 18.5605 20.5716 17.1428ZM5.143 6.85707C5.143 6.38479 5.527 5.99993 6.00014 5.99993H18.0001C18.4733 5.99993 18.8573 6.38479 18.8573 6.85707V11.1428H5.143V6.85707ZM18.8573 17.1428C18.8573 17.6151 18.4733 17.9999 18.0001 17.9999H6.00014C5.527 17.9999 5.143 17.6151 5.143 17.1428V12.8571H18.8573V17.1428Z" fill="black"/>
</svg>
