<svg width="24" height="24" viewBox="0 0 24 24" fill="none" xmlns="http://www.w3.org/2000/svg">
<path fill-rule="evenodd" clip-rule="evenodd" d="M0 9.44407C0 6.92733 2.05609 4.88449 4.5945 4.87614C4.84958 2.32985 6.86966 0.331691 9.39465 0.0371969C11.7192 -0.233848 13.9449 0.99703 14.9529 3.05518C16.146 2.71892 17.4173 2.95634 18.3996 3.66858C19.4395 4.42258 20.0875 5.65346 20.0319 7.01784C22.1435 6.76718 24 8.39542 24 10.5006C24 12.4437 22.3934 14.0189 20.4556 14.0088H18.2545V7.27869C18.2545 6.60823 17.7042 6.06617 17.0305 6.06617H6.96914C6.29235 6.06617 5.74517 6.61129 5.74517 7.27869V14.0088H4.61272C2.08763 14.022 0.00163261 11.9719 0.00163261 9.44083L0 9.44407ZM6.96956 6.56146C6.57152 6.56146 6.24546 6.88243 6.24546 7.27879V22.1968C6.24546 22.5911 6.56946 22.9141 6.96956 22.9141H17.033C17.4311 22.9141 17.7571 22.5932 17.7571 22.1968V7.27879C17.7571 6.88447 17.4331 6.56146 17.033 6.56146H6.96956ZM8.00429 18.7855H16.0013C16.2193 18.7855 16.4168 18.8741 16.5619 19.0147C16.7069 19.1584 16.7933 19.354 16.7933 19.57V21.1738C16.7933 21.3898 16.7038 21.5855 16.5619 21.7291C16.4168 21.8728 16.2193 21.9584 16.0013 21.9584H8.00429C7.78624 21.9584 7.58876 21.8697 7.44373 21.7291C7.2987 21.5885 7.2123 21.3898 7.2123 21.1738V19.57C7.2123 19.354 7.30179 19.1584 7.44373 19.0147C7.58876 18.8711 7.78624 18.7855 8.00429 18.7855ZM15.9981 19.2837C16.0773 19.2837 16.1504 19.3153 16.2038 19.3693C16.2563 19.4243 16.2902 19.4946 16.2902 19.5731V21.1769C16.2902 21.2553 16.2584 21.3277 16.2038 21.3807C16.1483 21.4326 16.0773 21.4663 15.9981 21.4663H8.00113C7.92193 21.4663 7.84891 21.4347 7.79542 21.3807C7.74296 21.3257 7.70902 21.2553 7.70902 21.1769V19.5731C7.70902 19.4946 7.74091 19.4223 7.79542 19.3693C7.85096 19.3174 7.92193 19.2837 8.00113 19.2837H15.9981ZM8.00429 15.0288H16.0013C16.2193 15.0288 16.4168 15.1175 16.5619 15.2581C16.7069 15.3987 16.7933 15.5974 16.7933 15.8134V17.4172C16.7933 17.6332 16.7038 17.8288 16.5619 17.9725C16.4168 18.1162 16.2193 18.2017 16.0013 18.2017H8.00429C7.78624 18.2017 7.58876 18.1131 7.44373 17.9725C7.2987 17.8288 7.2123 17.6332 7.2123 17.4172V15.8134C7.2123 15.5974 7.30179 15.4018 7.44373 15.2581C7.58876 15.1144 7.78624 15.0288 8.00429 15.0288ZM15.9981 15.525C16.0773 15.525 16.1504 15.5566 16.2038 15.6106C16.2563 15.6626 16.2902 15.7359 16.2902 15.8144V17.4182C16.2902 17.4966 16.2584 17.569 16.2038 17.622C16.1514 17.6739 16.0773 17.7076 15.9981 17.7076H8.00113C7.92193 17.7076 7.84891 17.676 7.79542 17.622C7.74296 17.57 7.70902 17.4966 7.70902 17.4182V15.8144C7.70902 15.7359 7.74091 15.6636 7.79542 15.6106C7.84788 15.5587 7.92193 15.525 8.00113 15.525H15.9981ZM8.00429 11.2701C7.78624 11.2701 7.58876 11.3588 7.44373 11.4994C7.2987 11.643 7.2123 11.8387 7.2123 12.0547V13.6585C7.2123 13.8745 7.30179 14.0701 7.44373 14.2138C7.58876 14.3575 7.78624 14.443 8.00429 14.443H16.0013C16.2193 14.443 16.4168 14.3544 16.5619 14.2138C16.7069 14.0732 16.7933 13.8745 16.7933 13.6585V12.0547C16.7933 11.8387 16.7038 11.643 16.5619 11.4994C16.4168 11.3557 16.2193 11.2701 16.0013 11.2701H8.00429ZM15.9981 11.7684H8.00113C7.92193 11.7684 7.84891 11.8 7.79542 11.854C7.74296 11.9059 7.70902 11.9793 7.70902 12.0578V13.6615C7.70902 13.74 7.74091 13.8123 7.79542 13.8653C7.84788 13.9173 7.92193 13.9509 8.00113 13.9509H15.9981C16.0773 13.9509 16.1504 13.9193 16.2038 13.8653C16.2563 13.8134 16.2902 13.74 16.2902 13.6615V12.0578C16.2902 11.9793 16.2584 11.907 16.2038 11.854C16.1514 11.802 16.0773 11.7684 15.9981 11.7684ZM8.00429 7.51425C7.78624 7.51425 7.58876 7.6029 7.44373 7.74351C7.2987 7.88718 7.2123 8.08282 7.2123 8.29883V9.90261C7.2123 10.1186 7.30179 10.3143 7.44373 10.4579C7.58876 10.6016 7.78624 10.6872 8.00429 10.6872H16.0013C16.2193 10.6872 16.4168 10.5985 16.5619 10.4579C16.7069 10.3143 16.7933 10.1186 16.7933 9.90261V8.29883C16.7933 8.08282 16.7038 7.88719 16.5619 7.74351C16.4199 7.59985 16.2193 7.51425 16.0013 7.51425H8.00429ZM15.9981 8.01252H8.00113C7.92193 8.01252 7.84891 8.04411 7.79542 8.09811C7.74296 8.15313 7.70902 8.22344 7.70902 8.3019V9.90568C7.70902 9.98413 7.74091 10.0565 7.79542 10.1095C7.85096 10.1614 7.92193 10.1951 8.00113 10.1951H15.9981C16.0773 10.1951 16.1504 10.1635 16.2038 10.1095C16.2563 10.0575 16.2902 9.98413 16.2902 9.90568V8.3019C16.2902 8.22344 16.2584 8.1511 16.2038 8.09811C16.1483 8.04614 16.0773 8.01252 15.9981 8.01252ZM11.0292 20.0185C11.2267 20.0185 11.3871 20.1774 11.3871 20.373C11.3871 20.5687 11.2267 20.7276 11.0292 20.7276C10.8317 20.7276 10.6713 20.5687 10.6713 20.373C10.6713 20.1774 10.8317 20.0185 11.0292 20.0185ZM9.88649 20.0185C10.084 20.0185 10.2444 20.1774 10.2444 20.373C10.2444 20.5687 10.084 20.7276 9.88649 20.7276C9.689 20.7276 9.52854 20.5687 9.52854 20.373C9.52854 20.1774 9.689 20.0185 9.88649 20.0185ZM8.74685 20.0185C8.94434 20.0185 9.1048 20.1774 9.1048 20.373C9.1048 20.5687 8.94434 20.7276 8.74685 20.7276C8.54937 20.7276 8.38891 20.5687 8.38891 20.373C8.38891 20.1774 8.54937 20.0185 8.74685 20.0185ZM11.0292 16.2628C11.2267 16.2628 11.3872 16.4218 11.3872 16.6174C11.3872 16.813 11.2267 16.972 11.0292 16.972C10.8317 16.972 10.6713 16.813 10.6713 16.6174C10.6713 16.4218 10.8317 16.2628 11.0292 16.2628ZM9.88651 16.2628C10.084 16.2628 10.2445 16.4218 10.2445 16.6174C10.2445 16.813 10.084 16.972 9.88651 16.972C9.68902 16.972 9.52857 16.813 9.52857 16.6174C9.52857 16.4218 9.68902 16.2628 9.88651 16.2628ZM8.74688 16.2628C8.94436 16.2628 9.10482 16.4218 9.10482 16.6174C9.10482 16.813 8.94437 16.972 8.74688 16.972C8.54939 16.972 8.38894 16.813 8.38894 16.6174C8.38894 16.4218 8.54939 16.2628 8.74688 16.2628ZM11.0293 12.5071C10.8318 12.5071 10.6713 12.6661 10.6713 12.8617C10.6713 13.0574 10.8318 13.2163 11.0293 13.2163C11.2267 13.2163 11.3872 13.0574 11.3872 12.8617C11.3872 12.6661 11.2267 12.5071 11.0293 12.5071ZM9.88654 12.5071C9.68906 12.5071 9.52859 12.6661 9.52859 12.8617C9.52859 13.0574 9.68905 13.2163 9.88654 13.2163C10.084 13.2163 10.2445 13.0574 10.2445 12.8617C10.2445 12.6661 10.084 12.5071 9.88654 12.5071ZM8.74691 12.5071C8.54942 12.5071 8.38896 12.6661 8.38896 12.8617C8.38896 13.0574 8.54942 13.2163 8.74691 13.2163C8.9444 13.2163 9.10485 13.0574 9.10485 12.8617C9.10485 12.6661 8.9444 12.5071 8.74691 12.5071ZM11.0293 8.74837C10.8318 8.74837 10.6713 8.90732 10.6713 9.10296C10.6713 9.2986 10.8318 9.45755 11.0293 9.45755C11.2268 9.45755 11.3872 9.2986 11.3872 9.10296C11.3872 8.90732 11.2268 8.74837 11.0293 8.74837ZM9.88657 8.74837C9.68908 8.74837 9.52862 8.90732 9.52862 9.10296C9.52862 9.2986 9.68908 9.45755 9.88657 9.45755C10.0841 9.45755 10.2445 9.2986 10.2445 9.10296C10.2445 8.90732 10.0841 8.74837 9.88657 8.74837ZM8.74693 8.74837C8.54945 8.74837 8.38899 8.90732 8.38899 9.10296C8.38899 9.2986 8.54945 9.45755 8.74693 9.45755C8.94442 9.45755 9.10488 9.2986 9.10488 9.10296C9.10488 8.90732 8.94442 8.74837 8.74693 8.74837ZM12.7808 19.9363H15.3276C15.488 19.9363 15.6176 20.0637 15.6176 20.2236V20.5263C15.6176 20.6852 15.4891 20.8136 15.3276 20.8136H12.7808C12.6204 20.8136 12.4908 20.6863 12.4908 20.5263V20.2236C12.4908 20.0647 12.6194 19.9363 12.7808 19.9363ZM12.7808 16.1796H15.3276C15.488 16.1796 15.6176 16.307 15.6176 16.4669V16.7696C15.6176 16.9285 15.4891 17.0569 15.3276 17.0569H12.7808C12.6204 17.0569 12.4908 16.9296 12.4908 16.7696V16.4669C12.4908 16.308 12.6194 16.1796 12.7808 16.1796ZM12.7808 12.4208C12.6204 12.4208 12.4908 12.5482 12.4908 12.7082V13.0108C12.4908 13.1697 12.6194 13.2981 12.7808 13.2981H15.3276C15.488 13.2981 15.6176 13.1708 15.6176 13.0108V12.7082C15.6176 12.5492 15.4891 12.4208 15.3276 12.4208H12.7808ZM12.7808 8.66516C12.6204 8.66516 12.4908 8.79252 12.4908 8.9525V9.25514C12.4908 9.41409 12.6194 9.54248 12.7808 9.54248H15.3276C15.488 9.54248 15.6176 9.41512 15.6176 9.25514V8.9525C15.6176 8.79355 15.4891 8.66516 15.3276 8.66516H12.7808ZM7.51148 24H8.97306C9.17363 24 9.33409 23.838 9.33409 23.6424V23.4131H7.1484V23.6424C7.1484 23.841 7.31194 24 7.50943 24H7.51148ZM15.0293 24H16.4908C16.6914 24 16.8519 23.838 16.8519 23.6424V23.4131H14.6662V23.6424C14.6662 23.841 14.8297 24 15.0272 24H15.0293Z" fill="black"/>
</svg>
