<svg width="26" height="24" viewBox="0 0 26 24" fill="none" xmlns="http://www.w3.org/2000/svg">
<path d="M23.3991 0H2.59963C1.16512 0 0 1.13333 0 2.526V6.3156C0 7.0747 0.352222 7.74737 0.898231 8.2104C0.352222 8.67343 0 9.3461 0 10.1052V13.8948C0 14.6539 0.352222 15.3266 0.898231 15.7896C0.352222 16.2526 0 16.9253 0 17.6844V21.474C0 22.8679 1.16637 24 2.59963 24H23.4004C24.8349 24 26 22.8667 26 21.474V17.6844C26 16.9253 25.6478 16.2526 25.1018 15.7896C25.6478 15.3266 26 14.6539 26 13.8948V10.1052C26 9.3461 25.6478 8.67343 25.1018 8.2104C25.6478 7.74737 26 7.0747 26 6.3156V2.526C26 1.13212 24.8336 0 23.4004 0H23.3991ZM24.6996 17.6844V21.474C24.6996 22.1703 24.117 22.7376 23.3991 22.7376H2.59963C1.88298 22.7376 1.29919 22.1715 1.29919 21.474V17.6844C1.29919 16.9881 1.88176 16.4208 2.59963 16.4208H23.4004C24.117 16.4208 24.7008 16.9869 24.7008 17.6844H24.6996ZM24.6996 10.1052V13.8948C24.6996 14.5911 24.117 15.1584 23.3991 15.1584H2.59963C1.88298 15.1584 1.29919 14.5923 1.29919 13.8948V10.1052C1.29919 9.40885 1.88176 8.84159 2.59963 8.84159H23.4004C24.117 8.84159 24.7008 9.40767 24.7008 10.1052H24.6996ZM2.59963 7.5792C1.88298 7.5792 1.29919 7.01313 1.29919 6.3156V2.526C1.29919 1.82965 1.88176 1.26239 2.59963 1.26239H23.4004C24.117 1.26239 24.7008 1.82847 24.7008 2.526V6.3156C24.7008 7.01194 24.1182 7.5792 23.4004 7.5792H2.59963Z" fill="black"/>
<path d="M3.2492 2.52612C2.8909 2.52612 2.59961 2.80798 2.59961 3.15732V5.68332C2.59961 6.03266 2.89089 6.31451 3.2492 6.31451C3.60751 6.31451 3.8988 6.03266 3.8988 5.68332V3.15732C3.8988 2.80798 3.60751 2.52612 3.2492 2.52612Z" fill="black"/>
<path d="M5.84881 2.52612C5.49051 2.52612 5.19922 2.80798 5.19922 3.15732V5.68332C5.19922 6.03266 5.4905 6.31451 5.84881 6.31451C6.20712 6.31451 6.49841 6.03266 6.49841 5.68332V3.15732C6.49841 2.80798 6.20712 2.52612 5.84881 2.52612Z" fill="black"/>
<path d="M2.59961 13.2636C2.59961 13.613 2.89089 13.8948 3.2492 13.8948C3.60751 13.8948 3.8988 13.613 3.8988 13.2636V10.7376C3.8988 10.3883 3.60751 10.1064 3.2492 10.1064C2.89089 10.1064 2.59961 10.3883 2.59961 10.7376V13.2636Z" fill="black"/>
<path d="M5.84881 13.8948C6.20712 13.8948 6.49841 13.613 6.49841 13.2636V10.7376C6.49841 10.3883 6.20712 10.1064 5.84881 10.1064C5.49051 10.1064 5.19922 10.3883 5.19922 10.7376V13.2636C5.19922 13.613 5.4905 13.8948 5.84881 13.8948Z" fill="black"/>
<path d="M2.59961 20.8427C2.59961 21.1921 2.89089 21.4739 3.2492 21.4739C3.60751 21.4739 3.8988 21.1921 3.8988 20.8427V18.3167C3.8988 17.9674 3.60751 17.6855 3.2492 17.6855C2.89089 17.6855 2.59961 17.9674 2.59961 18.3167V20.8427Z" fill="black"/>
<path d="M5.84881 21.4739C6.20712 21.4739 6.49841 21.1921 6.49841 20.8427V18.3167C6.49841 17.9674 6.20712 17.6855 5.84881 17.6855C5.49051 17.6855 5.19922 17.9674 5.19922 18.3167V20.8427C5.19922 21.1921 5.4905 21.4739 5.84881 21.4739Z" fill="black"/>
<path d="M22.1 3.78955H9.75018C9.39187 3.78955 9.10059 4.0714 9.10059 4.42075C9.10059 4.77009 9.39187 5.05194 9.75018 5.05194H22.1C22.4583 5.05194 22.7496 4.77009 22.7496 4.42075C22.7496 4.0714 22.4583 3.78955 22.1 3.78955Z" fill="black"/>
<path d="M9.74872 12.6313H22.0985C22.4568 12.6313 22.7481 12.3494 22.7481 12.0001C22.7481 11.6507 22.4568 11.3689 22.0985 11.3689H9.74872C9.39041 11.3689 9.09912 11.6507 9.09912 12.0001C9.09912 12.3494 9.39041 12.6313 9.74872 12.6313Z" fill="black"/>
<path d="M9.74872 20.2104H22.0985C22.4568 20.2104 22.7481 19.9285 22.7481 19.5792C22.7481 19.2299 22.4568 18.948 22.0985 18.948H9.74872C9.39041 18.948 9.09912 19.2299 9.09912 19.5792C9.09912 19.9285 9.39041 20.2104 9.74872 20.2104Z" fill="black"/>
</svg>
