<svg width="30" height="24" viewBox="0 0 30 24" fill="none" xmlns="http://www.w3.org/2000/svg">
<path d="M7.80961 8.73763C7.90542 8.63004 7.9695 8.49826 7.9948 8.3568C8.02778 8.20436 8.04701 8.04929 8.05226 7.89345C8.05226 7.7189 8.05226 7.48088 8.05226 7.19209C8.07813 6.8514 8.02911 6.5092 7.90859 6.18923C7.87723 6.1144 7.82985 6.04725 7.76976 5.99244C7.70966 5.93764 7.63828 5.8965 7.56058 5.87187C7.47063 5.85 7.3771 5.84689 7.28589 5.86273C7.19467 5.87857 7.10774 5.91302 7.03058 5.9639L0.434341 9.97851H0.411992C0.325646 10.0418 0.252914 10.1217 0.198077 10.2134C0.140496 10.3115 0.100524 10.4189 0.0799449 10.5307C0.0607883 10.6323 0.0448245 10.7592 0.0320535 10.9052C0.0192824 11.0512 0.000125914 11.2448 0.000125914 11.4415C-0.00203491 11.7352 0.0236203 12.0285 0.0767521 12.3174C0.0921223 12.434 0.130839 12.5462 0.190614 12.6476C0.250388 12.749 0.330007 12.8375 0.424763 12.9077L7.05293 16.935C7.15781 17.0012 7.27513 17.0455 7.39775 17.0652H7.4648C7.5555 17.0639 7.64421 17.0385 7.7217 16.9916C7.79918 16.9447 7.86262 16.8781 7.9054 16.7986C7.98222 16.6565 8.0269 16.4994 8.0363 16.3384C8.05815 16.1212 8.06774 15.9029 8.06504 15.6846C8.06504 15.3863 8.06504 15.142 8.04907 14.9611C8.04322 14.7984 8.02075 14.6368 7.98202 14.4787C7.94391 14.3262 7.8631 14.1875 7.74895 14.0788C7.66374 14.0058 7.57181 13.941 7.47438 13.8852L3.15138 11.4479L7.57016 8.92487C7.6582 8.87362 7.73877 8.81062 7.80961 8.73763Z" fill="black"/>
<path d="M29.9803 10.9305C29.9803 10.7845 29.9515 10.6575 29.9324 10.5528C29.9116 10.4411 29.8716 10.3337 29.8142 10.2354C29.7603 10.1431 29.6874 10.0631 29.6003 10.0006L22.9658 5.97013C22.8895 5.91738 22.8025 5.88181 22.711 5.86591C22.6195 5.85002 22.5255 5.85417 22.4358 5.87809C22.3588 5.9033 22.2881 5.9447 22.2286 5.99945C22.1691 6.05421 22.1222 6.12106 22.091 6.19545C21.9704 6.51542 21.9214 6.85762 21.9473 7.19831C21.9473 7.48711 21.9473 7.72513 21.9473 7.89967C21.9615 8.05516 21.9893 8.20912 22.0303 8.35984C22.058 8.50114 22.123 8.63256 22.2187 8.74068C22.2916 8.81492 22.3743 8.87898 22.4645 8.93109L26.8737 11.4478L22.5475 13.8851C22.4501 13.9409 22.3582 14.0057 22.2729 14.0787C22.1565 14.1872 22.0725 14.3256 22.0303 14.4785C21.9909 14.6378 21.9663 14.8004 21.9569 14.9641C21.9569 15.145 21.9409 15.3894 21.9409 15.6877C21.9381 15.906 21.9477 16.1242 21.9696 16.3414C21.9794 16.5024 22.0241 16.6594 22.1005 16.8016C22.1431 16.8813 22.2064 16.9482 22.284 16.9951C22.3615 17.042 22.4504 17.0673 22.5411 17.0682H22.605C22.7325 17.0481 22.8543 17.0016 22.9626 16.9317L29.6067 12.9013C29.7841 12.7555 29.8984 12.5476 29.926 12.3205C29.975 12.029 29.9964 11.7337 29.9898 11.4382C30.0122 11.2446 29.993 11.0764 29.9803 10.9305Z" fill="black"/>
<path d="M10.7598 23.5138C10.7335 23.5982 10.6913 23.6768 10.6353 23.7455C10.5764 23.8107 10.5017 23.8599 10.4182 23.8883C10.3063 23.9314 10.1894 23.9602 10.0702 23.974C9.89629 23.9922 9.72148 24.0007 9.5466 23.9994C9.33284 24.0033 9.11916 23.9885 8.90804 23.955C8.77388 23.9374 8.64466 23.8932 8.52811 23.8248C8.48757 23.8002 8.45307 23.767 8.42711 23.7274C8.40115 23.6879 8.38439 23.6431 8.37805 23.5963C8.36847 23.4891 8.38152 23.381 8.41636 23.279L18.5182 0.498884C18.5388 0.412216 18.578 0.331009 18.6332 0.260864C18.6895 0.192759 18.7635 0.141194 18.8471 0.111705C18.9599 0.067875 19.0779 0.0390629 19.1983 0.0260182C19.3733 0.00803196 19.5492 -0.000443866 19.7251 0.000629143C19.9389 -0.00334602 20.1526 0.0115224 20.3637 0.0450596C20.4948 0.0625335 20.6209 0.106837 20.734 0.175177C20.7734 0.200454 20.8066 0.234028 20.8315 0.273517C20.8563 0.313007 20.8721 0.357444 20.8777 0.403676C20.8879 0.510319 20.8782 0.617925 20.849 0.721036L10.7598 23.5138Z" fill="black"/>
</svg>
